<svg xmlns="http://www.w3.org/2000/svg" viewBox="0 0 447.83 576.83">
    <defs><style>.cls-1{fill:#fff;}</style></defs>
    <polygon class="cls-1" points="11.5 21 11.5 490.33 30.5 501.67 361.17 501.67 372.5 477.67 372.5 139.67 254.5 10.33 19.83 10.33 11.5 21"/>
    <path d="M373.33,128H266.67A10.69,10.69,0,0,1,256,117.33V10.67A10.67,10.67,0,0,0,245.33,0H32A32,32,0,0,0,0,32V480a32,32,0,0,0,32,32H352a32,32,0,0,0,32-32V138.67A10.67,
        10.67,0,0,0,373.33,128ZM362.67,480A10.69,10.69,0,0,1,352,490.67H32A10.69,10.69,0,0,1,21.33,480V32A10.69,10.69,0,0,1,32,21.33H234.67v96a32,32,0,0,0,32,32h96Z"/>
    <path d="M380.86,131.14l-128-128a10.66,10.66,0,1,0-15.08,15.08l128,128a10.66,10.66,0,1,0,15.08-15.08Z"/>
    <polygon class="cls-1" points="45.01 53.08 45.01 522.41 64.01 533.75 394.68 533.75 406.01 509.75 406.01 171.75 288.01 42.41 53.34 42.41 45.01 53.08"/>
    <path d="M406.18,160.08H299.51a10.68,10.68,0,0,1-10.66-10.67V42.75a10.67,10.67,0,0,0-10.67-10.67H64.85a32,32,0,0,0-32,32v448a32,32,0,0,0,32,32h320a32,32,0,0,0,32-32V170.75A10.67,
        10.67,0,0,0,406.18,160.08Zm-10.67,352a10.68,10.68,0,0,1-10.66,10.67h-320a10.69,10.69,0,0,1-10.67-10.67v-448A10.69,10.69,0,0,1,64.85,53.41H267.51v96a32,32,0,0,0,32,32h96Z"/>
    <path d="M413.71,163.22l-128-128A10.66,10.66,0,1,0,270.63,50.3l128,128a10.66,10.66,0,0,0,15.08-15.08Z"/>
    <polygon class="cls-1" points="76.83 86.17 76.83 555.5 95.83 566.83 426.5 566.83 437.83 542.83 437.83 204.83 319.83 75.5 85.17 75.5 76.83 86.17"/>
    <path d="M437.17,192.83H330.5a10.68,10.68,0,0,1-10.67-10.66V75.5a10.67,10.67,0,0,0-10.66-10.67H95.83a32,32,0,0,0-32,32v448a32,32,0,0,0,32,32h320a32,32,0,0,0,32-32V203.5A10.67,
    10.67,0,0,0,437.17,192.83Zm-10.67,352a10.69,10.69,0,0,1-10.67,10.67h-320a10.68,10.68,0,0,1-10.66-10.67v-448A10.68,10.68,0,0,1,95.83,86.17H298.5v96a32,32,0,0,0,32,32h96Z"/>
    <path d="M444.7,196,316.7,68a10.67,10.67,0,1,0-15.09,15.08l128,128a10.75,10.75,0,0,0,7.56,3.12A10.66,10.66,0,0,0,444.7,196Z"/>
</svg>